<svg width="1844" height="855" viewBox="0 0 1844 855" fill="none" xmlns="http://www.w3.org/2000/svg">
<circle cx="1411.71" cy="597.547" r="10.5" transform="rotate(-93.2415 1411.71 597.547)" stroke="#FFBA49" stroke-width="5"/>
<circle cx="1481.36" cy="783.906" r="9.5" transform="rotate(-93.2415 1481.36 783.906)" stroke="#FFBA49" stroke-width="5"/>
<circle cx="1676.35" cy="663.188" r="30" transform="rotate(-93.2415 1676.35 663.188)" stroke="#FFBA49" stroke-width="5"/>
<circle cx="1648.04" cy="800.008" r="52" transform="rotate(-93.2415 1648.04 800.008)" stroke="#FFBA49" stroke-width="5"/>
<circle cx="1534.11" cy="645.202" r="38" transform="rotate(-93.2415 1534.11 645.202)" stroke="#FFBA49" stroke-width="5"/>
<circle cx="254.972" cy="547.622" r="34" transform="rotate(-163.246 254.972 547.622)" stroke="#FFBA49" stroke-width="5"/>
<circle cx="258.371" cy="447.868" r="22.5" transform="rotate(-163.246 258.371 447.868)" stroke="#FFBA49" stroke-width="5"/>
<circle cx="62.1721" cy="435.278" r="59" transform="rotate(-163.246 62.1721 435.278)" stroke="#FFBA49" stroke-width="5"/>
<circle cx="64.8038" cy="589.586" r="18" transform="rotate(-163.246 64.8038 589.586)" stroke="#FFBA49" stroke-width="5"/>
<circle cx="1457.16" cy="251.764" r="10.5" transform="rotate(-180 1457.16 251.764)" stroke="#FFBA49" stroke-width="5"/>
<circle cx="1501.66" cy="205.264" r="38" transform="rotate(-180 1501.66 205.264)" stroke="#FFBA49" stroke-width="5"/>
<circle cx="1814.96" cy="3.52358" r="3.52358" transform="rotate(90 1814.96 3.52358)" fill="#70C217"/>
<circle cx="1814.96" cy="55.2028" r="3.52358" transform="rotate(90 1814.96 55.2028)" fill="#70C217"/>
<circle cx="1814.96" cy="106.882" r="3.52358" transform="rotate(90 1814.96 106.882)" fill="#70C217"/>
<circle cx="1814.96" cy="158.561" r="3.52358" transform="rotate(90 1814.96 158.561)" fill="#70C217"/>
<circle cx="1814.96" cy="210.24" r="3.52358" transform="rotate(90 1814.96 210.24)" fill="#70C217"/>
<circle cx="1763.28" cy="3.52358" r="3.52358" transform="rotate(90 1763.28 3.52358)" fill="#70C217"/>
<circle cx="1763.28" cy="55.2028" r="3.52358" transform="rotate(90 1763.28 55.2028)" fill="#70C217"/>
<circle cx="1763.28" cy="106.882" r="3.52358" transform="rotate(90 1763.28 106.882)" fill="#70C217"/>
<circle cx="1763.28" cy="158.561" r="3.52358" transform="rotate(90 1763.28 158.561)" fill="#70C217"/>
<circle cx="1763.28" cy="210.24" r="3.52358" transform="rotate(90 1763.28 210.24)" fill="#70C217"/>
<circle cx="1711.6" cy="3.52358" r="3.52358" transform="rotate(90 1711.6 3.52358)" fill="#70C217"/>
<circle cx="1711.6" cy="55.2028" r="3.52358" transform="rotate(90 1711.6 55.2028)" fill="#70C217"/>
<circle cx="1711.6" cy="106.882" r="3.52358" transform="rotate(90 1711.6 106.882)" fill="#70C217"/>
<circle cx="1711.6" cy="158.561" r="3.52358" transform="rotate(90 1711.6 158.561)" fill="#70C217"/>
<circle cx="1711.6" cy="210.24" r="3.52358" transform="rotate(90 1711.6 210.24)" fill="#70C217"/>
<circle cx="1659.92" cy="3.52358" r="3.52358" transform="rotate(90 1659.92 3.52358)" fill="#70C217"/>
<circle cx="1659.92" cy="55.2028" r="3.52358" transform="rotate(90 1659.92 55.2028)" fill="#70C217"/>
<circle cx="1659.92" cy="106.882" r="3.52358" transform="rotate(90 1659.92 106.882)" fill="#70C217"/>
<circle cx="1659.92" cy="158.561" r="3.52358" transform="rotate(90 1659.92 158.561)" fill="#70C217"/>
<circle cx="1659.92" cy="210.24" r="3.52358" transform="rotate(90 1659.92 210.24)" fill="#70C217"/>
<circle cx="1608.24" cy="3.52358" r="3.52358" transform="rotate(90 1608.24 3.52358)" fill="#70C217"/>
<circle cx="1608.24" cy="55.2028" r="3.52358" transform="rotate(90 1608.24 55.2028)" fill="#70C217"/>
<circle cx="1608.24" cy="106.882" r="3.52358" transform="rotate(90 1608.24 106.882)" fill="#70C217"/>
<circle cx="1608.24" cy="158.561" r="3.52358" transform="rotate(90 1608.24 158.561)" fill="#70C217"/>
<circle cx="1608.24" cy="210.24" r="3.52358" transform="rotate(90 1608.24 210.24)" fill="#70C217"/>
<circle cx="1556.56" cy="3.52358" r="3.52358" transform="rotate(90 1556.56 3.52358)" fill="#70C217"/>
<circle cx="1556.56" cy="55.2028" r="3.52358" transform="rotate(90 1556.56 55.2028)" fill="#70C217"/>
<circle cx="1556.56" cy="106.882" r="3.52358" transform="rotate(90 1556.56 106.882)" fill="#70C217"/>
<circle cx="1556.56" cy="158.561" r="3.52358" transform="rotate(90 1556.56 158.561)" fill="#70C217"/>
<circle cx="1556.56" cy="210.24" r="3.52358" transform="rotate(90 1556.56 210.24)" fill="#70C217"/>
<circle cx="1504.88" cy="3.52358" r="3.52358" transform="rotate(90 1504.88 3.52358)" fill="#70C217"/>
<circle cx="1504.88" cy="55.2028" r="3.52358" transform="rotate(90 1504.88 55.2028)" fill="#70C217"/>
<circle cx="1504.88" cy="106.882" r="3.52358" transform="rotate(90 1504.88 106.882)" fill="#70C217"/>
<circle cx="1504.88" cy="158.561" r="3.52358" transform="rotate(90 1504.88 158.561)" fill="#70C217"/>
<circle cx="1504.88" cy="210.24" r="3.52358" transform="rotate(90 1504.88 210.24)" fill="#70C217"/>
<circle cx="1453.2" cy="3.52358" r="3.52358" transform="rotate(90 1453.2 3.52358)" fill="#70C217"/>
<circle cx="1453.2" cy="55.2028" r="3.52358" transform="rotate(90 1453.2 55.2028)" fill="#70C217"/>
<circle cx="1453.2" cy="106.882" r="3.52358" transform="rotate(90 1453.2 106.882)" fill="#70C217"/>
<circle cx="1453.2" cy="158.561" r="3.52358" transform="rotate(90 1453.2 158.561)" fill="#70C217"/>
<circle cx="1453.2" cy="210.24" r="3.52358" transform="rotate(90 1453.2 210.24)" fill="#70C217"/>
<circle cx="1401.52" cy="3.52358" r="3.52358" transform="rotate(90 1401.52 3.52358)" fill="#70C217"/>
<circle cx="1401.52" cy="55.2028" r="3.52358" transform="rotate(90 1401.52 55.2028)" fill="#70C217"/>
<circle cx="1401.52" cy="106.882" r="3.52358" transform="rotate(90 1401.52 106.882)" fill="#70C217"/>
<circle cx="1401.52" cy="158.561" r="3.52358" transform="rotate(90 1401.52 158.561)" fill="#70C217"/>
<circle cx="1401.52" cy="210.24" r="3.52358" transform="rotate(90 1401.52 210.24)" fill="#70C217"/>
</svg>
